Coordinates
version=1
nRows=27
nColumns=38
inDegrees=no

Units are S.I. units (second, meters, Newtons, ...)
If the header above contains a line with 'inDegrees', this indicates whether rotational values are in degrees (yes) or radians (no).

endheader
time	pelvis_tilt	pelvis_list	pelvis_rotation	pelvis_tx	pelvis_ty	pelvis_tz	hip_flexion_r	hip_adduction_r	hip_rotation_r	knee_angle_r	ankle_angle_r	subtalar_angle_r	mtp_angle_r	hip_flexion_l	hip_adduction_l	hip_rotation_l	knee_angle_l	ankle_angle_l	subtalar_angle_l	mtp_angle_l	lumbar_extension	lumbar_bending	lumbar_rotation	arm_flex_r	arm_add_r	arm_rot_r	elbow_flex_r	pro_sup_r	wrist_flex_r	wrist_dev_r	arm_flex_l	arm_add_l	arm_rot_l	elbow_flex_l	pro_sup_l	wrist_flex_l	wrist_dev_l
0	3.00839	1.26366	-1.32866	0.696125	-0.172233	0.950988	-0.419176	0.0358352	0.0125459	0.147305	-0.249134	0	0	-0.388326	-0.140366	-0.0576528	0.175431	-0.205923	0	0	-0.358663	0.133153	-0.158081	0.165792	-0.327753	0.524025	0.68032	1.5708	0	0	-0.0226762	-0.236187	0.254282	0.666863	1.5708	0	0
0.01	3.00051	1.27962	-1.31892	0.695959	-0.171185	0.950485	-0.403222	0.0353059	0.00542001	0.143882	-0.253442	0	0	-0.371561	-0.139221	-0.0500154	0.174905	-0.206924	0	0	-0.335476	0.132713	-0.167243	0.171553	-0.320492	0.563043	0.648342	1.5708	0	0	-0.0158899	-0.227151	0.274012	0.621241	1.5708	0	0
0.02	3.00108	1.27912	-1.31968	0.696225	-0.17126	0.95047	-0.403672	0.0355214	0.00449823	0.143894	-0.25333	0	0	-0.372259	-0.139271	-0.0500281	0.174599	-0.206645	0	0	-0.337627	0.132132	-0.165708	0.168306	-0.316764	0.572829	0.640208	1.5708	0	0	-0.0178011	-0.223985	0.2778	0.61568	1.5708	0	0
0.03	2.99941	1.27892	-1.31872	0.696631	-0.171395	0.950453	-0.403753	0.0363907	0.00810495	0.143588	-0.252835	0	0	-0.372826	-0.139594	-0.0490415	0.173541	-0.206503	0	0	-0.339	0.131971	-0.164488	0.165661	-0.312972	0.582081	0.633852	1.5708	0	0	-0.020716	-0.221429	0.279525	0.613228	1.5708	0	0
0.04	2.99815	1.27877	-1.31748	0.696918	-0.17155	0.950451	-0.403727	0.0371975	0.00990052	0.143414	-0.252553	0	0	-0.373283	-0.139501	-0.0460458	0.172198	-0.206337	0	0	-0.339924	0.13212	-0.163997	0.162887	-0.309791	0.59053	0.630106	1.5708	0	0	-0.0243359	-0.219604	0.280889	0.614287	1.5708	0	0
0.05	2.9971	1.28139	-1.31593	0.697181	-0.171573	0.950441	-0.40095	0.0374305	0.0112704	0.143247	-0.252565	0	0	-0.371165	-0.138187	-0.0399301	0.169811	-0.206626	0	0	-0.343667	0.130061	-0.154004	0.151918	-0.310048	0.58576	0.636514	1.5708	0	0	-0.0239259	-0.218329	0.284385	0.621693	1.5708	0	0
0.06	2.99899	1.28034	-1.31755	0.697508	-0.171825	0.950536	-0.401979	0.0376407	0.012209	0.143197	-0.252424	0	0	-0.372316	-0.136829	-0.035179	0.169123	-0.206449	0	0	-0.344235	0.12996	-0.152534	0.146918	-0.30662	0.586105	0.637764	1.5708	0	0	-0.0258801	-0.218057	0.289847	0.62549	1.5708	0	0
0.07	3.00305	1.27872	-1.32159	0.697917	-0.172113	0.950754	-0.403719	0.0373849	0.0128639	0.143095	-0.252517	0	0	-0.374279	-0.134702	-0.0305209	0.168324	-0.206418	0	0	-0.344996	0.12928	-0.153258	0.144776	-0.302111	0.589444	0.63733	1.5708	0	0	-0.0295993	-0.218837	0.293503	0.632157	1.5708	0	0
0.08	3.00931	1.27611	-1.32809	0.698372	-0.17245	0.951101	-0.406631	0.0367636	0.0135486	0.142954	-0.252817	0	0	-0.376927	-0.1323	-0.0272237	0.168614	-0.206781	0	0	-0.346893	0.128072	-0.154732	0.143973	-0.297576	0.594087	0.637509	1.5708	0	0	-0.033931	-0.220318	0.296161	0.640893	1.5708	0	0
0.09	3.01405	1.27586	-1.33325	0.698817	-0.172657	0.951477	-0.406825	0.0360967	0.013963	0.143167	-0.253138	0	0	-0.376472	-0.130178	-0.0248057	0.17013	-0.207358	0	0	-0.351987	0.125058	-0.147075	0.137006	-0.296469	0.588992	0.645378	1.5708	0	0	-0.0335364	-0.22106	0.299269	0.652406	1.5708	0	0
0.1	3.02262	1.26949	-1.3434	0.69874	-0.172984	0.951929	-0.413379	0.0336991	0.00869786	0.143662	-0.254852	0	0	-0.345968	-0.147954	-0.114557	0.259903	-0.190947	0	0	-0.356872	0.125033	-0.149102	0.135714	-0.294549	0.589	0.652461	1.5708	0	0	-0.0385461	-0.222036	0.300116	0.664597	1.5708	0	0
0.11	3.02464	1.26901	-1.3454	0.698922	-0.173597	0.95206	-0.411798	0.0330751	0.00345521	0.146427	-0.254941	0	0	-0.345495	-0.148585	-0.121697	0.260335	-0.190442	0	0	-0.354269	0.125922	-0.153842	0.137827	-0.290174	0.594262	0.652792	1.5708	0	0	-0.0424848	-0.2229	0.300936	0.672479	1.5708	0	0
0.12	3.03126	1.27295	-1.3499	0.698713	-0.174158	0.952121	-0.406317	0.0303519	-0.000638715	0.149062	-0.254919	0	0	-0.337681	-0.149139	-0.139063	0.265807	-0.19316	0	0	-0.361439	0.121554	-0.139436	0.12412	-0.293245	0.573272	0.672493	1.5708	0	0	-0.0373237	-0.224448	0.306846	0.6914	1.5708	0	0
0.13	3.03618	1.27037	-1.35403	0.698749	-0.174754	0.952247	-0.408709	0.0295156	-0.000359223	0.149442	-0.254555	0	0	-0.339398	-0.149629	-0.146459	0.26687	-0.194267	0	0	-0.358534	0.122582	-0.145324	0.125613	-0.288001	0.574101	0.672941	1.5708	0	0	-0.0403483	-0.225542	0.309064	0.697666	1.5708	0	0
0.14	3.03857	1.27178	-1.35559	0.699145	-0.174921	0.952328	-0.407394	0.0291903	0.00182257	0.149376	-0.254254	0	0	-0.338364	-0.148956	-0.144099	0.264789	-0.195507	0	0	-0.356315	0.121945	-0.146268	0.124866	-0.283814	0.575044	0.675249	1.5708	0	0	-0.0421238	-0.227038	0.310198	0.707188	1.5708	0	0
0.15	3.03954	1.27582	-1.35604	0.699431	-0.174998	0.952256	-0.403244	0.028611	0.00421321	0.149085	-0.253632	0	0	-0.336074	-0.146957	-0.136624	0.258808	-0.197992	0	0	-0.362521	0.118202	-0.12888	0.109536	-0.285798	0.548969	0.695222	1.5708	0	0	-0.0357133	-0.229369	0.318147	0.7256	1.5708	0	0
0.16	3.04718	1.27107	-1.36307	0.699768	-0.175556	0.952452	-0.408953	0.0278646	0.00473263	0.147659	-0.253073	0	0	-0.343413	-0.145194	-0.132073	0.252567	-0.200806	0	0	-0.350736	0.121628	-0.15804	0.132078	-0.272985	0.582254	0.672494	1.5708	0	0	-0.0499617	-0.231046	0.308439	0.725184	1.5708	0	0
0.17	3.04856	1.27193	-1.36446	0.700167	-0.175783	0.95248	-0.408166	0.0277061	0.00666747	0.147061	-0.253111	0	0	-0.344852	-0.143362	-0.123249	0.246237	-0.201953	0	0	-0.350019	0.120972	-0.159293	0.134418	-0.269343	0.583557	0.672978	1.5708	0	0	-0.0523346	-0.232274	0.304966	0.73554	1.5708	0	0
0.18	3.04812	1.27298	-1.36501	0.700819	-0.175839	0.952438	-0.408086	0.0284237	0.0101054	0.144089	-0.25351	0	0	-0.350734	-0.139444	-0.099627	0.229785	-0.203988	0	0	-0.349093	0.120195	-0.158934	0.135325	-0.265131	0.580142	0.673716	1.5708	0	0	-0.0547062	-0.234519	0.303661	0.746687	1.5708	0	0
0.19	3.04579	1.27628	-1.36322	0.701486	-0.175948	0.952432	-0.404649	0.0295206	0.0135487	0.142988	-0.253832	0	0	-0.353523	-0.136293	-0.0771825	0.214056	-0.207335	0	0	-0.348576	0.119206	-0.154971	0.134149	-0.261071	0.572095	0.675168	1.5708	0	0	-0.0526584	-0.236824	0.307405	0.755435	1.5708	0	0
0.2	3.04065	1.27549	-1.35919	0.701586	-0.176431	0.952464	-0.404367	0.0308224	0.0154057	0.143159	-0.254013	0	0	-0.35695	-0.136117	-0.0698848	0.206701	-0.209054	0	0	-0.351887	0.120887	-0.151417	0.135222	-0.259695	0.566299	0.678395	1.5708	0	0	-0.0496699	-0.237781	0.310572	0.763819	1.5708	0	0
0.21	3.03758	1.27508	-1.35697	0.70161	-0.176965	0.952526	-0.403695	0.0311418	0.0161993	0.143329	-0.25446	0	0	-0.358605	-0.135913	-0.066417	0.202358	-0.210304	0	0	-0.35507	0.12203	-0.14871	0.137092	-0.258611	0.560995	0.681034	1.5708	0	0	-0.0460904	-0.238272	0.312474	0.770542	1.5708	0	0
0.22	3.03422	1.27473	-1.35439	0.701636	-0.177516	0.952616	-0.402596	0.031507	0.0175866	0.144425	-0.254981	0	0	-0.359794	-0.135979	-0.0633871	0.198827	-0.211377	0	0	-0.358522	0.123174	-0.146109	0.139336	-0.257672	0.555801	0.683353	1.5708	0	0	-0.0418129	-0.238496	0.313398	0.77606	1.5708	0	0
0.23	3.03133	1.27465	-1.35231	0.701668	-0.178068	0.95267	-0.401449	0.0320138	0.018682	0.144996	-0.255502	0	0	-0.360611	-0.135893	-0.0603903	0.195548	-0.21247	0	0	-0.361798	0.123997	-0.1433	0.141843	-0.256813	0.550074	0.685227	1.5708	0	0	-0.0371427	-0.238851	0.314512	0.780909	1.5708	0	0
0.24	3.02967	1.27548	-1.35124	0.701706	-0.178574	0.952651	-0.399852	0.0322124	0.019015	0.14471	-0.255971	0	0	-0.360385	-0.135459	-0.0578505	0.192493	-0.213808	0	0	-0.363927	0.124075	-0.140701	0.14395	-0.255934	0.542119	0.687035	1.5708	0	0	-0.0323914	-0.239845	0.316981	0.785448	1.5708	0	0
0.25	3.02865	1.27694	-1.35015	0.701621	-0.179038	0.952633	-0.397453	0.0319322	0.0185267	0.145027	-0.256453	0	0	-0.358901	-0.135039	-0.0563206	0.190478	-0.215352	0	0	-0.365014	0.124032	-0.139293	0.145757	-0.255136	0.528805	0.689381	1.5708	0	0	-0.0273095	-0.240779	0.31968	0.788905	1.5708	0	0
0.26	3.02649	1.27847	-1.34816	0.70151	-0.17954	0.952629	-0.394651	0.0318368	0.0181408	0.145688	-0.256965	0	0	-0.356974	-0.134888	-0.0552719	0.189271	-0.216418	0	0	-0.365789	0.124186	-0.137789	0.147349	-0.254386	0.514372	0.691959	1.5708	0	0	-0.021769	-0.241405	0.32192	0.791512	1.5708	0	0
